<?xml version="1.0" ?><svg id="OBJECT" viewBox="0 0 512 512" xmlns="http://www.w3.org/2000/svg"><defs><style>.cls-1{fill:#fff;}.cls-2{fill:#3d9ae2;}.cls-3{fill:#bddbff;}</style></defs><title/><ellipse class="cls-1" cx="306" cy="315.84" rx="67" ry="38.67" transform="translate(-133.7 308.88) rotate(-45)"/><path class="cls-2" d="M278.51,373.32a84.69,84.69,0,0,1-21.82-2.86,7.5,7.5,0,0,1-5.31-5.31A84.87,84.87,0,0,1,355.31,261.22a7.48,7.48,0,0,1,5.31,5.31,84.83,84.83,0,0,1-82.11,106.79ZM264.87,357a69.86,69.86,0,0,0,82.26-82.27A69.86,69.86,0,0,0,264.87,357Z"/><rect class="cls-3" height="180" width="30" x="241" y="217.33"/><path class="cls-2" d="M271,404.83H241a7.5,7.5,0,0,1-7.5-7.5v-180a7.5,7.5,0,0,1,7.5-7.5h30a7.5,7.5,0,0,1,7.5,7.5v180A7.5,7.5,0,0,1,271,404.83Zm-22.5-15h15v-165h-15Z"/><circle class="cls-3" cx="256" cy="127.5" r="120"/><path class="cls-2" d="M256,255A127.5,127.5,0,1,1,383.5,127.5,127.65,127.65,0,0,1,256,255Zm0-240A112.5,112.5,0,1,0,368.5,127.5,112.63,112.63,0,0,0,256,15Z"/><circle class="cls-1" cx="256" cy="127.5" r="90"/><path class="cls-2" d="M256,225a97.5,97.5,0,1,1,97.5-97.5A97.61,97.61,0,0,1,256,225Zm0-180a82.5,82.5,0,1,0,82.5,82.5A82.59,82.59,0,0,0,256,45Z"/><rect class="cls-3" height="38.66" width="350" x="81" y="395.84"/><path class="cls-2" d="M431,442H81a7.5,7.5,0,0,1-7.5-7.5V395.84a7.5,7.5,0,0,1,7.5-7.5H431a7.5,7.5,0,0,1,7.5,7.5V434.5A7.5,7.5,0,0,1,431,442ZM88.5,427h335V403.34H88.5Z"/><polygon class="cls-1" points="106 434.5 406 434.5 376 504.5 136 504.5 106 434.5"/><path class="cls-2" d="M376,512H136a7.49,7.49,0,0,1-6.89-4.55l-30-70A7.49,7.49,0,0,1,106,427H406a7.49,7.49,0,0,1,6.89,10.45l-30,70A7.49,7.49,0,0,1,376,512ZM141,497h230.1l23.58-55H117.37Z"/><path class="cls-2" d="M285.21,131.89c-3.58-4-9.71-7.58-18.76-11.06l-3.9-1.49V98a72.9,72.9,0,0,1,18.59,4.72,2,2,0,0,0,2.59-1.12l5-12.5a2,2,0,0,0-1.09-2.6,77.58,77.58,0,0,0-25.08-5.66V71.5a2,2,0,0,0-2-2h-9.1a2,2,0,0,0-2,2v9.71c-7.92,1.06-14.37,3.62-19.2,7.62a21.26,21.26,0,0,0-8.07,17A23.88,23.88,0,0,0,227.83,122c3.64,4.22,9.41,7.87,17.19,10.86l4.43,1.63v22.11a64.92,64.92,0,0,1-11.6-1.89A67.25,67.25,0,0,1,224.51,150a2,2,0,0,0-2.88,1.8v14.43a2,2,0,0,0,1.18,1.82c7,3.18,16,5,26.64,5.32v12.47a2,2,0,0,0,2,2h9.1a2,2,0,0,0,2-2V172.8c8.64-1.19,15.44-4,20.24-8.2a22.88,22.88,0,0,0,7.92-17.84A21.52,21.52,0,0,0,285.21,131.89Zm-14.63,15.9c0,2.64-.89,6.21-8,7.9V139.25a21.18,21.18,0,0,1,5.9,3.48A6.53,6.53,0,0,1,270.58,147.79ZM249.45,98.54v15.79a18,18,0,0,1-5.32-3.45,7.16,7.16,0,0,1-1.89-5.13,6.08,6.08,0,0,1,2.2-4.79A12.09,12.09,0,0,1,249.45,98.54Z"/></svg>