<svg width="50" height="50" viewBox="0 0 50 50" fill="none" xmlns="http://www.w3.org/2000/svg">
<path d="M30.1074 49.6582C29.8633 49.668 29.707 49.6875 29.5508 49.6875C26.2109 49.6875 22.8809 49.6778 19.541 49.6973C19.0723 49.6973 18.9453 49.5703 18.9453 49.1016C18.9551 41.3281 18.9551 33.5449 18.9551 25.7715C18.9551 25.5664 18.9551 25.3614 18.9551 25.0977C17.1387 25.0977 15.3711 25.0977 13.5742 25.0977C13.5742 22.3242 13.5742 19.5996 13.5742 16.7969C13.7598 16.7969 13.9355 16.7969 14.1016 16.7969C15.5664 16.7969 17.0312 16.7871 18.4961 16.8067C18.8672 16.8067 18.9648 16.6992 18.9648 16.3379C18.9453 14.1602 18.9453 11.9727 18.9648 9.79495C18.9746 8.27151 19.2188 6.78713 19.9219 5.41018C20.9277 3.46682 22.5195 2.20706 24.5312 1.42581C26.1719 0.781274 27.9004 0.546899 29.6387 0.517603C32.4707 0.47854 35.3027 0.498071 38.1348 0.488306C38.3984 0.488306 38.6133 0.47854 38.6133 0.849634C38.6035 3.53518 38.6035 6.22073 38.6035 8.90627C38.6035 8.93557 38.5937 8.96487 38.5547 9.09182C38.3887 9.09182 38.2031 9.09182 38.0176 9.09182C36.2598 9.09182 34.502 9.08206 32.7441 9.09182C31.7285 9.09182 30.9082 9.50198 30.3906 10.3906C30.2344 10.6543 30.1367 10.9961 30.1367 11.3086C30.1074 12.9688 30.1367 14.6289 30.1172 16.2891C30.1172 16.6797 30.2344 16.7871 30.6152 16.7871C33.0566 16.7676 35.498 16.7774 37.9395 16.7774C38.1348 16.7774 38.3203 16.7774 38.6523 16.7774C38.3105 19.5703 37.9785 22.3047 37.6367 25.0684C35.0977 25.0684 32.627 25.0684 30.1074 25.0684C30.1074 33.2813 30.1074 41.4453 30.1074 49.6582Z" fill="white"/>
</svg>
