<svg width="50" height="50" viewBox="0 0 50 50" fill="none" xmlns="http://www.w3.org/2000/svg">
<g clip-path="url(#clip0_28_13)">
<path d="M49.3164 25.0977C49.3164 28.4962 49.248 31.9044 49.3359 35.3028C49.4824 41.3184 45.7031 45.9669 40.8887 48.0372C38.9551 48.8672 36.9238 49.3067 34.8242 49.3067C28.252 49.3165 21.6699 49.4044 15.0977 49.2774C10.1465 49.1797 6.07422 47.1094 3.1543 43.0274C1.62109 40.879 0.888672 38.4376 0.888672 35.7911C0.888672 28.7891 0.888672 21.7969 0.888672 14.795C0.888672 9.08209 3.67188 5.08795 8.61328 2.49029C10.7617 1.36725 13.0957 0.888732 15.5273 0.878966C21.9043 0.878966 28.291 0.839904 34.668 0.898497C39.6191 0.93756 43.75 2.83209 46.7969 6.81647C48.4961 9.04303 49.3164 11.6016 49.3164 14.4141C49.3164 17.9688 49.3164 21.5333 49.3164 25.0977ZM4.49219 25.0977C4.49219 28.6817 4.49219 32.2559 4.49219 35.8399C4.49219 37.4415 4.86328 38.9454 5.69336 40.3028C7.87109 43.8672 11.1621 45.6055 15.2441 45.6739C21.7969 45.7715 28.3594 45.713 34.9219 45.6934C36.5332 45.6934 38.0957 45.3614 39.5508 44.668C43.5156 42.7735 45.7324 39.7559 45.7129 35.2247C45.6738 28.2911 45.7031 21.3575 45.7031 14.4239C45.7031 12.461 45.1465 10.6641 43.9844 9.08209C41.7383 6.04498 38.6328 4.55084 34.9219 4.51178C28.3789 4.43365 21.8359 4.48248 15.293 4.49225C13.8965 4.49225 12.5488 4.77545 11.2402 5.26373C7.64648 6.60162 4.30664 9.99029 4.46289 14.9805C4.58008 18.3594 4.49219 21.7286 4.49219 25.0977Z" fill="white"/>
<path d="M25.1563 35.4492C18.8574 35.4492 13.7793 30.4297 13.7695 24.1797C13.7598 18.0274 18.877 12.9883 25.1367 12.9883C31.416 12.9785 36.5137 18.0078 36.5235 24.209C36.5235 30.4004 31.4356 35.4395 25.1563 35.4492ZM25.1563 31.836C29.4434 31.836 32.9199 28.4082 32.9102 24.1895C32.9004 20.0098 29.4238 16.5918 25.1563 16.5918C20.8692 16.5918 17.3731 20 17.3731 24.209C17.3828 28.4277 20.8692 31.8457 25.1563 31.836Z" fill="white"/>
<path d="M37.8419 9.57031C39.1602 9.57031 40.2344 10.6934 40.2344 12.0703C40.2247 13.4473 39.1407 14.5605 37.8223 14.5508C36.5235 14.541 35.4591 13.4277 35.4591 12.0801C35.4493 10.7031 36.5235 9.57031 37.8419 9.57031Z" fill="white"/>
</g>
<defs>
<clipPath id="clip0_28_13">
<rect width="50" height="50" fill="white"/>
</clipPath>
</defs>
</svg>
