<svg width="100" height="100" viewBox="0 0 100 100" fill="none" xmlns="http://www.w3.org/2000/svg">
<path d="M31.3561 25.6767L69.9811 47.9767C71.5381 48.8757 71.5381 51.1237 69.9811 52.0227L31.3561 74.3227C29.7991 75.2217 27.8521 74.0977 27.8521 72.2997V27.6997C27.8521 25.9017 29.7981 24.7777 31.3561 25.6767Z" fill="white"/>
<path d="M69.9811 47.977L31.3561 25.677C31.1231 25.543 30.8821 25.467 30.6401 25.418L67.9811 46.977C69.5381 47.876 69.5381 50.124 67.9811 51.023L29.3561 73.323C29.0071 73.524 28.6401 73.611 28.2781 73.624C28.9341 74.562 30.2391 74.967 31.3561 74.323L69.9811 52.023C71.5381 51.124 71.5381 48.876 69.9811 47.977Z" fill="white"/>
<path d="M31.3561 25.6767L69.9811 47.9767C71.5381 48.8757 71.5381 51.1237 69.9811 52.0227L31.3561 74.3227C29.7991 75.2217 27.8521 74.0977 27.8521 72.2997V27.6997C27.8521 25.9017 29.7981 24.7777 31.3561 25.6767Z" stroke="white" stroke-miterlimit="10"/>
</svg>
