<svg width="479" height="479" viewBox="0 0 479 479" fill="none" xmlns="http://www.w3.org/2000/svg">
<mask id="path-1-inside-1_25_10" fill="white">
<path d="M472.501 184.087C485.75 239.793 478.601 298.403 452.352 349.292C426.103 400.181 382.49 439.982 329.418 461.48C276.347 482.977 217.33 484.75 163.064 466.475C108.798 448.201 62.8755 411.089 33.6198 361.867C4.3641 312.644 -6.28832 254.569 3.59338 198.168C13.4751 141.767 43.2369 90.7728 87.4842 54.4286C131.731 18.0843 187.536 -1.20459 244.782 0.0582533C302.028 1.32109 356.928 23.0521 399.529 61.3122L382.211 80.5959C344.22 46.4763 295.261 27.0971 244.21 25.9709C193.159 24.8447 143.394 42.0461 103.935 74.4572C64.4767 106.868 37.9357 152.344 29.1234 202.641C20.3112 252.938 29.8108 304.729 55.9004 348.624C81.99 392.519 122.943 425.615 171.336 441.912C219.729 458.209 272.359 456.628 319.687 437.457C367.015 418.285 405.908 382.792 429.317 337.41C452.726 292.028 459.1 239.762 447.286 190.084L472.501 184.087Z"/>
</mask>
<path d="M472.501 184.087C485.75 239.793 478.601 298.403 452.352 349.292C426.103 400.181 382.49 439.982 329.418 461.48C276.347 482.977 217.33 484.75 163.064 466.475C108.798 448.201 62.8755 411.089 33.6198 361.867C4.3641 312.644 -6.28832 254.569 3.59338 198.168C13.4751 141.767 43.2369 90.7728 87.4842 54.4286C131.731 18.0843 187.536 -1.20459 244.782 0.0582533C302.028 1.32109 356.928 23.0521 399.529 61.3122L382.211 80.5959C344.22 46.4763 295.261 27.0971 244.21 25.9709C193.159 24.8447 143.394 42.0461 103.935 74.4572C64.4767 106.868 37.9357 152.344 29.1234 202.641C20.3112 252.938 29.8108 304.729 55.9004 348.624C81.99 392.519 122.943 425.615 171.336 441.912C219.729 458.209 272.359 456.628 319.687 437.457C367.015 418.285 405.908 382.792 429.317 337.41C452.726 292.028 459.1 239.762 447.286 190.084L472.501 184.087Z" stroke="white" stroke-width="50" mask="url(#path-1-inside-1_25_10)"/>
<circle cx="439" cy="122" r="39.5" fill="white" stroke="white"/>
</svg>
