<svg width="50" height="50" viewBox="0 0 50 50" fill="none" xmlns="http://www.w3.org/2000/svg">
<path d="M26.1062 0.0421875C28.8327 0 31.5437 0.025 34.2515 0C34.4155 3.18906 35.5624 6.4375 37.8968 8.69219C40.2265 11.0031 43.5218 12.0609 46.728 12.4187V20.8078C43.7234 20.7094 40.7046 20.0844 37.978 18.7906C36.7905 18.2531 35.6843 17.5609 34.6015 16.8531C34.5874 22.9406 34.6265 29.0203 34.5624 35.0828C34.3999 37.9953 33.439 40.8938 31.7452 43.2938C29.0202 47.2891 24.2905 49.8937 19.4327 49.975C16.453 50.1453 13.4765 49.3328 10.9374 47.8359C6.7296 45.3547 3.76867 40.8125 3.33742 35.9375C3.28742 34.8953 3.27023 33.8547 3.31242 32.8375C3.68742 28.8734 5.64835 25.0813 8.6921 22.5016C12.1421 19.4969 16.9749 18.0656 21.4999 18.9125C21.5421 21.9984 21.4187 25.0813 21.4187 28.1672C19.3515 27.4984 16.9359 27.6859 15.1296 28.9406C13.8109 29.7953 12.8093 31.1047 12.2874 32.5859C11.8562 33.6422 11.9796 34.8156 12.0046 35.9375C12.4999 39.3562 15.7874 42.2297 19.2968 41.9187C21.6234 41.8937 23.853 40.5438 25.0655 38.5672C25.4577 37.875 25.8968 37.1672 25.9202 36.3531C26.1249 32.6266 26.0437 28.9156 26.0687 25.1891C26.0859 16.7906 26.0437 8.41562 26.1077 0.04375L26.1062 0.0421875Z" fill="white"/>
</svg>
