<svg width="512" height="512" viewBox="0 0 512 512" fill="none" xmlns="http://www.w3.org/2000/svg">
<path d="M260.4 449C203.3 447.2 149 445.8 94.7 443.7C83 443.2 71.1 441.4 59.7 438.7C38.3 433.7 23.5 420.8 15.9 399.7C9.79997 382.7 7.59997 365.2 5.99997 347.4C2.49997 305.6 2.49997 263.8 4.19997 222C5.19997 198.4 5.79997 174.6 12.1 151.7C15.9 138 20.5 124.6 31.6 114.7C43.3 104.2 57 97.8999 72.6 97.1999C115.4 95.0999 158.1 92.4999 200.9 92.0999C258.5 91.4999 316.2 92.2999 373.8 93.3999C398.7 93.8999 423.8 95.1999 448.5 98.3999C471.1 101.4 488 114 497 136C503.9 152.9 506.5 170.6 508 188.6C511.9 233.7 512 278.8 509.8 323.9C508.7 346.8 507.6 369.8 501.1 392.1C493.7 417.7 478 434.6 451.8 440.4C441.6 442.6 431 443.4 420.6 443.8C366.2 445.7 311.9 447.4 260.4 449ZM205.1 335.3C250.7 311.7 295.8 288.3 341.8 264.4C295.9 240.4 250.8 216.9 205.1 193C205.1 240.7 205.1 287.6 205.1 335.3Z" fill="white"/>
</svg>
